# xmcd
#
# Track frame offsets: 
#        150
#        11226
#        24496
#        33509
#        43153
#        53334
#        66072
#        78119
#        88991
#        101289
#        110030
#        121676
#        134046
#        146770
#        159153
#        169770
#        180579
#        191796
#        206621
#        218830
#        230332
#        241854
#
# Disc length: 3385 seconds
#
# Revision: 0
# Processed by: cddbd v1.5.2PL0 Copyright (c) Steve Scherf et al.
# Submitted via: ExactAudioCopy v0.99pb5
#
DISCID=2b0d3716
DTITLE=Jerry Lee Lewis - She Even Woke Me Up To Say Goodbye: There Mus
DTITLE=t Be More To Love Than This (Remaster)
DYEAR=2013
DGENRE=Country
TTITLE0=Once More With Feeling
TTITLE1=Workin' Man Blues
TTITLE2=Waiting For A Train
TTITLE3=Brown-Eyed Handsome Man
TTITLE4=My Only Claim To Fame
TTITLE5=Since I Met You Baby
TTITLE6=She Even Woke Me Up To Say Goodbye
TTITLE7=Wine Me Up
TTITLE8=When The Grass Grows Over Me
TTITLE9=You Went Out Of Your Way (To Walk On Me)
TTITLE10=Echoes
TTITLE11=There Must Be More To Love Than This
TTITLE12=Bottles And Barstools
TTITLE13=Reuben James
TTITLE14=I'd Be Talkin' All The Time
TTITLE15=One More Time
TTITLE16=Sweet Georgia Brown
TTITLE17=Woman, Woman (Get Out Of Our Way)
TTITLE18=I Forgot More Than You'll Ever Know
TTITLE19=Foolaid
TTITLE20=Home Away From Home
TTITLE21=Life's Little Up And Downs
EXTD=
EXTT0=
EXTT1=
EXTT2=
EXTT3=
EXTT4=
EXTT5=
EXTT6=
EXTT7=
EXTT8=
EXTT9=
EXTT10=
EXTT11=
EXTT12=
EXTT13=
EXTT14=
EXTT15=
EXTT16=
EXTT17=
EXTT18=
EXTT19=
EXTT20=
EXTT21=
PLAYORDER=
